<svg width="539" height="565" viewBox="0 0 539 565" fill="none" xmlns="http://www.w3.org/2000/svg">
<g clip-path="url(#clip0_2_11355)">
<path d="M269.494 0.000202137C331.843 -0.00575283 392.266 22.6502 440.466 64.1077C488.666 105.565 521.661 163.259 533.83 227.359C545.999 291.459 536.588 357.999 507.202 415.641C477.815 473.283 430.27 518.461 372.669 543.477C315.067 568.492 250.973 571.798 191.307 552.831C131.642 533.863 80.0956 493.796 45.4525 439.456C10.8094 385.117 -4.78733 319.867 1.31976 254.824C7.42685 189.782 34.8599 128.971 78.9447 82.7537C103.94 56.4821 133.641 35.6468 166.341 21.4453C199.042 7.2437 234.098 -0.0442511 269.494 0.000202137ZM456.941 86.0053C413.573 40.5464 356.509 12.2567 295.473 5.95628C234.437 -0.344123 173.206 15.7346 122.211 51.453C71.2169 87.1713 33.6151 140.319 15.8127 201.841C-1.98972 263.362 1.10881 329.451 24.5803 388.846C48.0518 448.242 90.444 497.269 144.534 527.573C198.624 557.878 261.064 567.586 321.217 555.042C381.369 542.499 435.511 508.48 474.418 458.782C513.325 409.085 534.59 346.784 534.589 282.494C534.631 245.995 527.793 209.846 514.465 176.126C501.138 142.406 481.585 111.779 456.93 86.0053H456.941Z" fill="#1800FF"/>
<path d="M269.494 75.3165C315.231 75.2849 359.562 91.8786 394.935 122.27C430.307 152.661 454.532 194.97 463.481 241.986C472.43 289.001 465.549 337.815 444.011 380.109C422.472 422.403 387.61 455.559 345.364 473.928C303.118 492.297 256.103 494.742 212.33 480.847C168.557 466.951 130.735 437.575 105.309 397.723C79.883 357.872 68.4266 310.012 72.892 262.298C77.3573 214.585 97.4681 169.971 129.797 136.058C148.119 116.788 169.891 101.502 193.865 91.0784C217.838 80.6544 243.54 75.2979 269.494 75.3165ZM406.145 139.264C374.533 106.133 332.94 85.5159 288.452 80.9264C243.965 76.3369 199.336 88.0586 162.169 114.094C125.002 140.13 97.5964 178.869 84.6224 223.711C71.6483 268.552 73.9081 316.722 91.0167 360.013C108.125 403.304 139.024 439.037 178.449 461.125C217.874 483.213 263.385 490.288 307.228 481.145C351.071 472.002 390.533 447.207 418.892 410.985C447.25 374.762 462.75 329.353 462.749 282.494C462.782 255.887 457.798 229.534 448.084 204.952C438.37 180.37 424.117 158.042 406.145 139.252V139.264Z" fill="#1800FF"/>
<path d="M56.9556 299.49L56.8566 293.725H56.4386L55.3386 293.84L53.7656 293.956C53.1827 293.956 52.5887 294.025 51.9617 294.036L23.7363 294.555L23.3953 275.576L56.5486 274.965L56.4496 269.2H56.0316L54.9316 269.315L53.3587 269.431C52.7757 269.431 52.1817 269.5 51.5547 269.511L19.4023 270.099L19.9083 300.413L20.3703 300.344L21.6133 300.205C22.134 300.151 22.7169 300.105 23.3623 300.067C24.0113 300.067 24.6712 299.986 25.3532 299.975L56.9666 299.398L56.9556 299.49ZM57.5386 256.828L61.8065 233.825L57.6926 232.672C57.6926 232.672 57.6926 233.052 57.6266 233.825C57.5606 234.597 57.4286 235.647 57.2086 237.053L54.8326 250.717L42.0399 248.111L45.2298 233.26L40.8299 232.107L38.267 247.361L25.7382 244.813L28.1912 232.476C28.3342 231.819 28.4662 231.173 28.6202 230.562C28.7742 229.951 28.9062 229.409 29.0381 228.89C29.1701 228.371 29.2801 227.99 29.3571 227.737L29.4891 227.287L25.4302 226.134L21.0303 249.737H21.5033L22.7243 249.875C23.2303 249.875 23.8243 250.013 24.4402 250.117C25.0562 250.221 25.7272 250.325 26.4092 250.463L57.5496 256.805L57.5386 256.828ZM63.7974 223.182L65.5684 217.775L65.1504 217.671L64.0504 217.371L62.5325 216.921C61.9715 216.748 61.4325 216.564 60.8165 216.356L53.1167 213.577L54.8766 208.227C55.5022 206.378 55.8041 204.424 55.7676 202.462C55.7421 200.715 55.3869 198.991 54.7226 197.389C54.0882 195.859 53.1558 194.485 51.9851 193.355C50.8145 192.226 49.4314 191.365 47.9248 190.828C45.8185 190.002 43.5394 189.783 41.3249 190.194C39.2402 190.653 37.3421 191.776 35.891 193.411C34.1188 195.465 32.7905 197.895 31.9971 200.537L28.5982 210.845L29.0601 210.949L30.2481 211.26C30.7431 211.387 31.3481 211.56 31.9201 211.744C32.4921 211.929 33.1741 212.136 33.8121 212.367L63.7974 223.182ZM35.341 202.589C35.8016 201.134 36.4974 199.773 37.398 198.565C38.1069 197.599 39.0125 196.811 40.0489 196.259C40.9934 195.782 42.0256 195.526 43.0739 195.509C44.1534 195.5 45.2259 195.691 46.2418 196.074C47.6158 196.543 48.8587 197.358 49.8607 198.45C50.7912 199.473 51.4147 200.76 51.6537 202.151C51.8993 203.732 51.7477 205.354 51.2137 206.855L49.4537 212.205L34.054 206.636L35.396 202.543L35.341 202.589ZM75.7432 168.874L66.4484 149.653C66.1844 149.088 65.9094 148.5 65.6234 148.027C65.3374 147.555 65.0734 147.047 64.8204 146.632C64.5674 146.217 64.3694 145.883 64.2154 145.641L63.9734 145.272L64.1274 145.11L64.5784 145.468C64.8864 145.698 65.3154 146.009 65.8874 146.413C66.4594 146.817 67.1414 147.243 67.9334 147.739L90.3179 161.287L92.9908 156.433L92.6059 156.248L91.5829 155.741L90.1969 154.98C89.6799 154.703 89.0969 154.404 88.6129 154.081L60.4975 137.062L58.1656 141.824L67.5154 161.264C67.7244 161.702 67.9554 162.141 68.1973 162.579C68.4393 163.017 68.6703 163.443 68.8793 163.824L69.4183 164.735L69.6273 165.092L69.5503 165.242H67.4274C66.8004 165.242 66.1294 165.242 65.4034 165.311L44.1518 166.683L41.9519 171.146L42.4689 171.388L43.7668 172.045C44.3058 172.322 44.8668 172.622 45.5048 172.968C46.1428 173.313 46.7368 173.648 47.3308 174.017L74.2582 190.309L76.6122 186.031L76.2272 185.847L75.2702 185.374L73.9942 184.705C73.5322 184.463 73.1033 184.221 72.6743 183.967L55.0746 173.336C54.3156 172.875 53.6116 172.472 52.9737 172.183L51.4337 171.376L50.8287 171.077V170.904H51.4887C51.9067 170.904 52.4787 170.904 53.1607 170.904C53.8426 170.904 54.5796 170.904 55.3606 170.811L75.3692 169.497L75.7432 168.828V168.874ZM84.29 112.433C85.0107 111.576 85.7784 110.764 86.589 110C87.3883 109.231 88.1656 108.54 88.9209 107.925C89.6689 107.267 90.3619 106.656 90.9669 106.08L88.3269 102.621C87.645 103.255 86.941 103.878 86.204 104.512C85.467 105.146 84.719 105.803 84.004 106.518C83.2256 107.262 82.4909 108.056 81.8041 108.893C80.1136 110.86 78.8524 113.189 78.1082 115.719C77.4618 118.002 77.3486 120.414 77.7782 122.753C78.2559 125.225 79.19 127.575 80.5281 129.671C82.0611 132.109 83.9124 134.309 86.028 136.209C87.8728 137.919 89.9868 139.28 92.2759 140.233C94.3588 141.084 96.5867 141.477 98.8207 141.386C101.039 141.298 103.213 140.704 105.19 139.645C107.374 138.459 109.317 136.837 110.909 134.871C111.766 133.845 112.56 132.763 113.285 131.631C113.801 130.827 114.264 129.987 114.671 129.117C114.921 128.585 115.142 128.039 115.331 127.48C115.396 127.291 115.451 127.099 115.496 126.904L112.108 125.07C112.108 125.07 111.987 125.37 111.734 125.947C111.341 126.741 110.903 127.511 110.425 128.253C109.681 129.442 108.858 130.575 107.962 131.643C106.908 132.98 105.615 134.088 104.156 134.906C102.894 135.583 101.512 135.976 100.097 136.059C98.7014 136.13 97.3049 135.943 95.9718 135.505C94.5528 135.048 93.1932 134.409 91.9239 133.603C90.5815 132.75 89.3119 131.778 88.129 130.697C86.6863 129.393 85.4206 127.887 84.367 126.223C83.4332 124.745 82.7451 123.111 82.3321 121.392C81.9635 119.836 81.9334 118.212 82.2441 116.642C82.5636 115.071 83.2645 113.613 84.279 112.41L84.29 112.433ZM122.228 121.081L126.408 117.403L126.1 117.091L125.308 116.238C124.978 115.881 124.626 115.489 124.208 115.085C123.79 114.681 123.416 114.163 123.02 113.667L115.221 103.924L117.74 101.71L138.739 106.945L143.392 102.482H142.93L141.764 102.332L140.191 102.079C139.63 101.987 139.091 101.86 138.53 101.733L119.555 97.04C119.519 94.3342 119.467 91.9551 119.401 89.9027C119.346 87.8388 119.258 86.04 119.17 84.4834C119.082 82.9268 118.972 81.5662 118.862 80.3555C118.752 79.1449 118.609 78.0495 118.466 77.0579C118.323 76.0662 118.169 75.0746 118.004 74.1176L113.868 77.7612C114.022 78.6029 114.176 79.4446 114.308 80.2864C114.44 81.1281 114.572 82.0505 114.682 83.0652C114.792 84.0798 114.902 85.279 115.001 86.6511C115.1 88.0232 115.188 89.6605 115.287 91.5746C115.386 93.4886 115.474 95.7601 115.573 98.3775L112.735 100.88L102.165 87.5505L98.1167 91.4708L98.4577 91.8052L99.3377 92.7276C99.7044 93.1197 100.108 93.5655 100.548 94.0652C100.988 94.561 101.439 95.0798 101.868 95.6333L122.228 121.069V121.081ZM148.859 97.5589L153.171 95.0568L155.624 62.2644C155.672 61.3042 155.672 60.342 155.624 59.3818C155.624 58.5401 155.525 57.8713 155.459 57.387C155.393 56.9028 155.36 56.6491 155.36 56.6376L155.569 56.5799L155.8 57.2371C155.965 57.6638 156.196 58.2287 156.493 58.9321C156.79 59.6355 157.164 60.3965 157.593 61.2382L170.231 85.1291L175.005 82.3618L174.763 81.9929L174.136 81.0012C173.883 80.5861 173.608 80.1249 173.3 79.6061C172.992 79.0872 172.684 78.5453 172.387 77.9803L156.669 48.1973L152.489 50.9416L150.08 83.2266C150.08 83.9645 150.08 84.7025 150.08 85.4174C150.08 86.1323 150.08 86.778 150.146 87.3545C150.212 87.931 150.212 88.4037 150.234 88.7496C150.256 89.0956 150.234 89.2801 150.234 89.2801L149.981 89.3608C149.981 89.3608 149.882 89.084 149.684 88.5652C149.486 88.0463 149.211 87.4121 148.848 86.5358C148.485 85.6595 148.034 84.7947 147.528 83.8031L135.296 60.6386L130.61 63.6826L130.885 64.0862L131.578 65.17C131.871 65.6236 132.183 66.1386 132.513 66.7151C132.854 67.2916 133.195 67.8681 133.525 68.5138L148.925 97.5589H148.859ZM187.578 29.8064C188.644 29.4427 189.669 28.9594 190.636 28.3651C191.46 27.8338 192.23 27.2156 192.935 26.5202C193.546 25.9395 194.102 25.2985 194.596 24.6062C195.01 24.0566 195.378 23.4702 195.696 22.8536L191.923 20.3976C191.472 21.2393 190.988 22.0349 190.493 22.7959C190.004 23.5346 189.423 24.2016 188.766 24.7791C188.08 25.3746 187.292 25.8285 186.445 26.1167C185.584 26.4154 184.677 26.5406 183.772 26.4856C182.927 26.421 182.094 26.2348 181.297 25.9322C180.483 25.6324 179.658 25.2749 178.811 24.8714L177.095 29.2068C177.681 29.5083 178.288 29.7627 178.91 29.9678C179.675 30.2314 180.464 30.413 181.264 30.5097C182.222 30.6184 183.188 30.6184 184.146 30.5097C185.294 30.387 186.426 30.1357 187.523 29.7602L187.578 29.8064ZM185.785 76.3545L190.471 74.7633L198.864 43.0663C199.115 42.1399 199.302 41.1959 199.425 40.2414C199.535 39.3996 199.601 38.7424 199.623 38.2351C199.645 37.7277 199.623 37.4856 199.623 37.4741H199.843C199.843 37.4741 199.843 37.7162 199.953 38.1659C200.063 38.6156 200.162 39.2152 200.327 39.9646C200.492 40.7141 200.723 41.5443 200.998 42.4552L209.049 68.4331L214.241 66.669L214.065 66.2654L213.636 65.1124C213.46 64.6627 213.273 64.1438 213.064 63.5788C212.855 63.0139 212.657 62.4258 212.47 61.8032L202.395 29.4605L197.786 31.3169L189.536 62.5526C189.349 63.2675 189.195 63.9709 189.074 64.6742C188.953 65.3776 188.865 66.0233 188.788 66.5998C188.711 67.1763 188.667 67.6491 188.634 67.995C188.601 68.3409 188.634 68.5254 188.634 68.5369H188.37C188.37 68.5369 188.37 68.2371 188.227 67.7067C188.084 67.1763 187.985 66.4384 187.776 65.539C187.567 64.6396 187.303 63.6711 186.973 62.5872L179.152 37.3472L174.015 39.4342L174.213 39.8839L174.697 41.037C174.903 41.5443 175.115 42.1131 175.335 42.7435C175.566 43.3776 175.797 44.0349 176.006 44.7151L185.796 76.2968L185.785 76.3545ZM255.612 59.8315C255.612 59.8315 255.612 59.67 255.733 59.3357C255.854 59.0013 255.975 58.4017 256.228 57.5715C256.481 56.7413 256.833 55.5998 257.327 54.1124C257.822 52.625 258.427 50.8378 259.153 48.6355L264.653 32.7005C265.585 30.0254 266.3 27.7194 266.798 25.7823C267.304 23.8682 267.645 22.4154 267.832 21.4007C268.019 20.3861 268.107 19.8787 268.096 19.8672L263.344 20.2131C263.344 20.2131 263.344 20.5936 263.179 21.3661C263.014 22.1387 262.86 23.1418 262.552 24.4909C262.244 25.8399 261.837 27.4196 261.287 29.2529L258.141 39.3881C257.789 40.5412 257.492 41.5328 257.24 42.4552C256.987 43.3776 256.811 44.1386 256.679 44.7613C256.547 45.3839 256.481 45.6145 256.481 45.626H256.294C256.294 45.626 256.173 45.3263 255.942 44.7843C255.711 44.2424 255.392 43.5045 254.985 42.5936C254.578 41.6827 254.072 40.6565 253.5 39.538L244.194 21.5391L238.606 22.1156L238.903 22.5884C239.09 22.8881 239.343 23.3032 239.651 23.8221C239.959 24.341 240.311 24.9751 240.674 25.5863C241.037 26.1974 241.422 26.9122 241.774 27.6156L253.874 50.6764C253.368 51.9101 252.917 53.0747 252.51 54.1355C252.103 55.1963 251.729 56.2571 251.41 57.2371C251.091 58.2172 250.75 59.2088 250.442 60.1659L255.678 59.7853L255.612 59.8315ZM301.811 61.8839L307.222 62.5757C307.222 62.5757 307.222 62.4143 307.222 62.126C307.222 61.8378 307.222 61.4342 307.222 60.973C307.222 60.5118 307.277 59.9352 307.321 59.3241C307.365 58.713 307.42 58.0904 307.497 57.4447L311.457 23.6607L305.958 23.2341C305.958 23.2341 305.958 23.407 305.958 23.7299V25.0328C305.958 25.5863 305.902 26.1858 305.858 26.8661C305.814 27.5464 305.738 28.2382 305.66 28.9531L304.374 39.9185L285.762 37.5202L287.742 20.6051L282.242 20.1785C282.242 20.1785 282.242 20.3515 282.242 20.6743C282.242 20.9972 282.242 21.4353 282.242 21.9772C282.242 22.5192 282.187 23.1303 282.132 23.8106C282.077 24.4909 282.022 25.1827 281.945 25.8976L278.095 58.8053L283.507 59.4971C283.507 59.4971 283.507 59.3357 283.507 59.0474C283.507 58.7591 283.507 58.3671 283.507 57.8944C283.507 57.4216 283.562 56.8566 283.606 56.2455C283.65 55.6344 283.705 55.0118 283.782 54.3661L285.278 41.5789L303.89 43.9772L301.789 61.8839H301.811ZM319.113 64.8933L323.799 66.4845L348.362 46.0066C349.068 45.3905 349.744 44.7363 350.386 44.0464C350.947 43.4353 351.365 42.8933 351.662 42.559C351.959 42.2246 352.113 41.9825 352.113 41.9709L352.3 42.0977L352.003 42.7204C351.816 43.1355 351.585 43.7005 351.299 44.4038C351.013 45.1072 350.738 45.9258 350.441 46.8252L342.389 72.8031L347.592 74.5904L347.68 74.1522C347.746 73.8639 347.834 73.4834 347.944 72.9992C348.054 72.5149 348.186 71.996 348.351 71.408C348.516 70.8199 348.67 70.2549 348.868 69.5977L358.899 37.2319L354.192 35.8944L329.992 56.0841C329.453 56.5568 328.892 57.0527 328.441 57.5485C327.99 58.0443 327.517 58.4939 327.132 58.9206L326.219 59.9468L325.878 60.3503L325.647 60.212C325.647 60.212 325.779 59.9468 325.999 59.4394C326.219 58.9321 326.516 58.2864 326.846 57.4101C327.176 56.5338 327.506 55.5998 327.847 54.5275L335.668 29.2875L330.344 27.7655L330.245 28.2498L329.992 29.5296C329.875 30.06 329.728 30.6519 329.552 31.3053C329.387 31.9626 329.2 32.6313 328.991 33.3116L319.201 64.8933H319.113ZM358.536 79.5599L368.216 84.7256C369.834 85.6149 371.563 86.2594 373.353 86.6396C374.886 86.9584 376.463 86.9584 377.995 86.6396C379.423 86.3353 380.762 85.6793 381.9 84.7256C383.142 83.6554 384.151 82.3186 384.859 80.8052C385.433 79.6264 385.763 78.3336 385.827 77.0117C385.886 75.6725 385.656 74.3366 385.156 73.1029C384.602 71.7453 383.763 70.5356 382.703 69.5631V69.4593C384.944 69.5303 387.13 68.7293 388.841 67.2109C389.756 66.3921 390.504 65.3882 391.041 64.2591C391.846 62.6938 392.226 60.9272 392.141 59.1512C391.999 57.3571 391.331 55.6531 390.227 54.2738C388.773 52.5263 386.991 51.113 384.991 50.1229L375.091 44.8305L374.926 45.2917L374.464 46.4447C374.266 46.9405 374.035 47.5055 373.771 48.1166C373.507 48.7277 373.221 49.3619 372.913 49.9961L358.536 79.5599ZM376.598 68.583C377.835 69.2101 378.915 70.1298 379.755 71.2696C380.47 72.2744 380.887 73.4773 380.954 74.7287C381.007 76.0404 380.722 77.3428 380.129 78.4991C379.555 79.7618 378.661 80.8347 377.544 81.6008C376.528 82.2693 375.345 82.6063 374.145 82.5694C372.803 82.513 371.49 82.1385 370.306 81.474L364.806 78.5222L371.054 65.6543L376.62 68.6291L376.598 68.583ZM382.791 53.3514C384.505 54.0992 385.903 55.471 386.729 57.2141C387.014 58.0465 387.118 58.9354 387.032 59.8155C386.947 60.6955 386.674 61.5441 386.234 62.299C385.897 63.0021 385.455 63.6444 384.925 64.2015C384.483 64.6562 383.984 65.0443 383.44 65.3545C383 65.6133 382.536 65.8221 382.054 65.9772C381.716 66.09 381.37 66.1748 381.02 66.2308H380.613L372.781 62.0453L378.215 50.8608L382.791 53.3514ZM387.752 97.5012L406.066 110.946L408.717 107.487L407.749 106.956C407.122 106.599 406.231 106.022 405.099 105.238L394.165 97.409L401.634 86.2245L413.282 95.3104L416.109 91.5631L403.856 82.9038L411.181 71.9384L420.938 79.3063C421.455 79.7098 421.961 80.1019 422.434 80.4593L423.721 81.5432L424.623 82.3272L424.964 82.627L427.582 79.1679L408.794 65.3315L408.574 65.7696L407.958 66.9227C407.705 67.3839 407.397 67.9143 407.056 68.4677C406.715 69.0212 406.352 69.6208 405.956 70.2088L387.719 97.5012H387.752ZM413.744 117.772L417.539 121.888L417.814 121.542L418.562 120.654C418.87 120.285 419.233 119.882 419.662 119.501C420.091 119.121 420.487 118.602 420.927 118.152L426.79 112.214L430.541 116.284C431.823 117.71 433.339 118.882 435.018 119.743C436.514 120.512 438.14 120.962 439.803 121.069C441.391 121.169 442.981 120.921 444.472 120.339C445.962 119.757 447.321 118.855 448.46 117.691C450.11 116.102 451.326 114.08 451.98 111.833C452.538 109.678 452.445 107.394 451.716 105.296C450.78 102.692 449.316 100.331 447.426 98.3775L440.21 90.5484L439.913 90.9289L439.11 91.8974C438.769 92.301 438.373 92.7507 437.944 93.235C437.515 93.7192 437.042 94.2266 436.547 94.7224L413.766 117.783L413.744 117.772ZM444.148 100.58C445.155 101.66 445.981 102.911 446.59 104.281C447.07 105.365 447.318 106.545 447.316 107.74C447.293 108.841 447.041 109.923 446.579 110.911C446.097 111.922 445.449 112.835 444.665 113.609C443.643 114.682 442.385 115.474 441.002 115.915C439.71 116.322 438.333 116.322 437.042 115.915C435.583 115.427 434.271 114.549 433.236 113.367L429.485 109.297L441.222 97.4205L444.093 100.534L444.148 100.58ZM471.383 134.318C472.008 135.247 472.581 136.213 473.099 137.212C473.605 138.196 474.074 139.145 474.507 140.06C474.947 140.971 475.365 141.812 475.761 142.562L479.589 140.671C479.149 139.841 478.731 138.976 478.302 138.077C477.873 137.177 477.433 136.266 476.949 135.332C476.419 134.346 475.831 133.395 475.189 132.484C473.744 130.319 471.867 128.51 469.689 127.18C467.711 126.008 465.492 125.351 463.221 125.266C460.805 125.191 458.398 125.614 456.137 126.512C453.52 127.54 451.054 128.949 448.812 130.697C446.806 132.197 445.064 134.05 443.664 136.174C442.394 138.107 441.518 140.293 441.09 142.597C440.67 144.889 440.734 147.251 441.277 149.515C441.886 152.014 442.954 154.364 444.423 156.433C445.186 157.54 446.017 158.596 446.909 159.592C447.54 160.3 448.216 160.963 448.933 161.576C449.372 161.949 449.831 162.295 450.308 162.613L450.803 162.913L453.278 159.869L452.552 159.292C451.891 158.708 451.263 158.085 450.671 157.425C449.733 156.398 448.865 155.304 448.075 154.15C447.093 152.77 446.375 151.204 445.963 149.538C445.621 148.104 445.569 146.612 445.809 145.156C446.057 143.718 446.544 142.336 447.25 141.074C447.992 139.726 448.889 138.479 449.923 137.362C451.02 136.18 452.212 135.1 453.487 134.133C455.024 132.953 456.708 131.999 458.491 131.297C460.076 130.676 461.75 130.341 463.441 130.305C464.959 130.285 466.462 130.62 467.841 131.285C469.23 131.965 470.427 133.01 471.317 134.318H471.383ZM454.289 171.999L456.599 176.611L487.839 179.77C488.754 179.844 489.672 179.867 490.589 179.84C491.392 179.84 492.03 179.759 492.492 179.701C492.954 179.644 493.196 179.609 493.207 179.609V179.828L492.58 180.059C492.173 180.22 491.634 180.451 490.952 180.751C490.27 181.05 489.544 181.431 488.752 181.904L465.74 194.725L468.303 199.776L468.655 199.522L469.612 198.888L470.954 198.035C471.46 197.723 471.977 197.412 472.527 197.112L501.215 181.027L498.663 176.6L467.863 173.509C467.159 173.509 466.455 173.44 465.773 173.44C465.091 173.44 464.475 173.44 463.925 173.44L462.594 173.509H462.088L462.011 173.233L462.77 172.933C463.265 172.737 463.87 172.46 464.728 172.091C465.586 171.722 466.4 171.273 467.357 170.754L489.709 158.289L486.893 153.32L486.508 153.596L485.408 154.311C484.968 154.611 484.469 154.93 483.912 155.268C483.362 155.614 482.812 155.96 482.174 156.295L454.289 171.999ZM473.814 219.446L475.321 224.946L475.717 224.785L476.817 224.37L478.302 223.828C478.852 223.632 479.402 223.436 480.018 223.263L507.308 215.065L509.134 222.548C509.31 223.275 509.475 223.978 509.596 224.635C509.717 225.292 509.827 225.788 509.893 226.261C509.959 226.734 510.003 226.907 510.003 226.918L514.183 225.892L506.274 196.962L502.161 198.023C502.161 198.023 502.238 198.208 502.37 198.542C502.502 198.876 502.666 199.372 502.886 199.983C503.106 200.594 503.326 201.321 503.579 202.162L505.9 209.842L473.88 219.47L473.814 219.446ZM479.391 244.237L482.504 267.436L486.739 267.09C486.739 267.09 486.64 266.721 486.453 265.937C486.266 265.153 486.068 264.138 485.848 262.731L483.824 249.056L496.727 247.154L498.289 262.305L502.831 261.913L500.511 246.612L513.149 244.756L514.667 257.255C514.744 257.923 514.81 258.581 514.854 259.203C514.898 259.826 514.942 260.414 514.975 260.933C515.008 261.452 514.975 261.855 515.041 262.167C515.107 262.478 515.041 262.628 515.041 262.628L519.221 262.293L516.031 238.483L515.58 238.61L514.392 238.898C513.886 239.014 513.292 239.14 512.698 239.256C512.104 239.371 511.411 239.498 510.729 239.602L479.314 244.214L479.391 244.237ZM482.295 286.046L482.196 291.811H482.625L483.725 291.742L485.298 291.673C485.881 291.673 486.486 291.673 487.102 291.673L515.492 292.192L515.151 299.905C515.151 300.655 515.074 301.381 515.008 302.039C514.942 302.696 514.887 303.261 514.843 303.687C514.799 304.114 514.766 304.333 514.766 304.345L519.056 304.644L519.562 274.562L515.327 274.32C515.327 274.32 515.327 274.516 515.327 274.873C515.327 275.23 515.382 275.749 515.415 276.407C515.448 277.064 515.415 277.825 515.415 278.713L515.492 286.784L482.185 286.173L482.295 286.046Z" fill="#1800FF"/>
<path d="M39.5977 386.037L41.7976 391.26L42.1716 391.041L43.1726 390.476L44.5696 389.727C45.0865 389.45 45.6695 389.185 46.1975 388.92L53.6444 385.461L55.8443 390.638C56.5902 392.429 57.6372 394.066 58.9353 395.469C60.0888 396.727 61.4682 397.734 62.9942 398.432C64.4539 399.096 66.0299 399.433 67.6211 399.421C69.2122 399.409 70.7835 399.049 72.234 398.363C74.3057 397.463 76.1098 395.998 77.4589 394.12C78.6858 392.294 79.3429 390.115 79.3398 387.882C79.2977 385.114 78.6861 382.389 77.5469 379.891L73.323 369.952L72.916 370.206L71.816 370.829C71.365 371.094 70.848 371.37 70.276 371.67C69.704 371.97 69.0991 372.281 68.4831 372.57L39.5977 386.037ZM73.774 380.779C74.3755 382.164 74.7474 383.645 74.8739 385.161C74.9737 386.37 74.8159 387.587 74.4119 388.724C74.0303 389.747 73.4411 390.672 72.685 391.433C71.9008 392.209 70.9923 392.834 70.001 393.278C68.6921 393.919 67.2527 394.212 65.8101 394.131C64.4641 394.046 63.1715 393.549 62.0922 392.702C60.9007 391.717 59.9724 390.426 59.3973 388.954L57.1973 383.777L72.102 376.859L73.785 380.814L73.774 380.779ZM58.7373 424.318L71.563 443.516L75.1819 441.21L74.4449 440.368C73.972 439.803 73.345 438.95 72.52 437.809L64.8201 426.532L75.4899 418.703L83.4648 431.386L87.3367 428.93L78.6469 416.397L89.0966 408.717L95.8615 419.095C96.2135 419.66 96.5655 420.248 96.8735 420.744L97.7315 422.219C97.9845 422.669 98.1825 423.015 98.3255 423.28L98.5455 423.684L102.12 421.378L88.9206 401.684L88.5687 402.007L87.6337 402.825C87.2377 403.171 86.7867 403.552 86.2807 403.978C85.7747 404.405 85.2357 404.809 84.6747 405.224L58.7373 424.318ZM83.7948 458.24L87.5127 462.426L87.7877 462.092L88.5577 461.215C88.8767 460.858 89.2396 460.466 89.6576 460.062C90.0756 459.659 90.4936 459.186 90.9446 458.736L98.1055 451.737L102.802 457.018L97.6215 474.233L101.9 478.638C101.9 478.638 101.9 478.372 102.021 477.9C102.142 477.427 102.219 476.804 102.384 476.055C102.549 475.305 102.736 474.498 102.967 473.656L106.993 459.543C108.201 460.306 109.538 460.816 110.931 461.042C112.341 461.257 113.779 461.127 115.133 460.662C116.677 460.116 118.086 459.218 119.258 458.033C120.766 456.618 121.851 454.776 122.382 452.729C122.858 450.63 122.724 448.429 121.997 446.41C121.056 443.825 119.618 441.47 117.773 439.492L110.689 431.536L110.381 431.916L109.567 432.874C109.226 433.277 108.819 433.715 108.368 434.188C107.917 434.661 107.444 435.168 106.949 435.652L83.8058 458.275L83.7948 458.24ZM114.484 441.614C115.785 442.984 116.804 444.621 117.476 446.422C117.966 447.756 118.032 449.22 117.663 450.596C117.21 451.933 116.455 453.135 115.463 454.101C114.471 455.067 113.271 455.767 111.965 456.142C110.711 456.452 109.398 456.364 108.192 455.888C106.778 455.317 105.512 454.404 104.496 453.225L100.811 449.085L111.657 438.477L114.473 441.648L114.484 441.614ZM135.582 493.097L154.38 484.368C154.93 484.126 155.48 483.861 155.975 483.596C156.47 483.33 156.943 483.077 157.35 482.823L158.318 482.235L158.681 482.004L158.835 482.177L158.472 482.639C158.241 482.95 157.911 483.388 157.504 483.953C157.097 484.518 156.646 485.221 156.129 486.029L142.05 508.755L146.537 511.811L146.735 511.418L147.274 510.369C147.505 509.943 147.758 509.47 148.055 508.939C148.352 508.409 148.66 507.879 149.001 507.337L166.689 478.787L162.289 476.112L143.271 484.887C142.842 485.083 142.413 485.302 141.973 485.533L140.752 486.178L139.85 486.697L139.498 486.893L139.366 486.801C139.366 486.801 139.366 486.582 139.366 486.178C139.366 485.775 139.366 485.256 139.443 484.599C139.52 483.942 139.443 483.238 139.443 482.477L139.245 460.166L135.175 457.756L134.911 458.286L134.218 459.612C133.932 460.166 133.602 460.766 133.239 461.388C132.876 462.011 132.524 462.645 132.139 463.245L115.21 490.583L119.159 493.27L119.357 492.878L119.863 491.898C120.072 491.494 120.303 491.067 120.567 490.595C120.831 490.122 121.073 489.684 121.348 489.257L132.348 471.42C132.821 470.647 133.25 469.932 133.602 469.286C133.954 468.641 134.24 468.133 134.449 467.718L134.768 467.107H134.933C134.933 467.107 134.933 467.349 134.867 467.799C134.801 468.249 134.779 468.825 134.735 469.54C134.691 470.255 134.735 471.028 134.735 471.846L134.944 492.716L135.571 493.143L135.582 493.097ZM222.194 500.615L217.332 499.461L217.255 499.946L217.013 501.226C216.914 501.768 216.782 502.379 216.639 503.024C216.496 503.67 216.32 504.362 216.133 505.042L211.062 523.56C210.7 524.944 210.132 526.259 209.379 527.457C208.701 528.531 207.822 529.449 206.794 530.155C205.769 530.844 204.606 531.274 203.395 531.412C202.007 531.558 200.605 531.413 199.27 530.986C197.859 530.588 196.533 529.911 195.365 528.991C194.38 528.204 193.585 527.185 193.045 526.016C192.524 524.849 192.243 523.58 192.22 522.292C192.194 520.86 192.38 519.432 192.77 518.06L199.369 493.777L194.002 492.451L193.925 492.935L193.683 494.215C193.58 494.753 193.452 495.349 193.298 496.002C193.155 496.66 192.99 497.34 192.803 498.032L187.754 516.48C187.179 518.466 186.937 520.542 187.039 522.614C187.129 524.452 187.602 526.247 188.425 527.872C189.262 529.502 190.439 530.913 191.868 532C193.529 533.25 195.392 534.176 197.367 534.733C199.504 535.413 201.74 535.682 203.967 535.529C205.778 535.404 207.538 534.854 209.119 533.92C210.699 532.986 212.059 531.692 213.097 530.132C214.164 528.529 214.964 526.747 215.462 524.863L222.062 500.58L222.194 500.615ZM256.051 545.11L260.451 544.949L263.751 505.895L258.922 505.734C258.922 505.734 258.922 505.907 258.922 506.23C258.922 506.553 258.922 506.991 258.922 507.544C258.922 508.098 258.922 508.697 258.922 509.378C258.922 510.058 258.856 510.75 258.79 511.465L257.052 532.312C257.052 532.877 256.986 533.465 256.975 534.041C256.964 534.618 256.975 535.194 256.975 535.701C256.975 536.209 256.975 536.624 256.975 536.935C256.975 537.247 256.975 537.419 256.975 537.431H256.81L256.645 536.981C256.524 536.682 256.381 536.301 256.194 535.828C256.007 535.356 255.787 534.86 255.545 534.341C255.303 533.822 255.061 533.315 254.808 532.83L239.332 503.601L234.668 503.451C234.668 503.451 234.668 503.624 234.668 503.947C234.668 504.27 234.668 504.708 234.668 505.261C234.668 505.815 234.668 506.414 234.668 507.095C234.668 507.775 234.602 508.478 234.547 509.182L231.786 542.262L236.538 542.7C236.538 542.7 236.538 542.539 236.538 542.251C236.538 541.962 236.538 541.559 236.538 541.098C236.538 540.636 236.538 540.06 236.538 539.449C236.538 538.838 236.593 538.215 236.648 537.569L238.43 516.215C238.43 515.835 238.43 515.385 238.43 514.855C238.43 514.324 238.43 513.782 238.43 513.252C238.43 512.721 238.43 512.283 238.43 511.926C238.43 511.568 238.43 511.372 238.43 511.372H238.584L238.793 511.891C238.925 512.214 239.09 512.629 239.299 513.113C239.508 513.598 239.717 514.105 239.948 514.589C240.179 515.074 240.366 515.5 240.542 515.835L256.073 545.076L256.051 545.11ZM281.67 544.661L287.104 544.165C287.104 544.165 287.104 544.015 287.027 543.727C286.95 543.438 286.917 543.046 286.84 542.574C286.763 542.101 286.697 541.547 286.62 540.936C286.543 540.325 286.477 539.703 286.422 539.057L283.595 505.146L278.095 505.93L278.183 506.414L278.392 507.706C278.48 508.244 278.564 508.851 278.645 509.527C278.733 510.196 278.81 510.9 278.876 511.603L281.637 544.684L281.67 544.661ZM318.475 528.899C318.376 529.717 318.299 530.49 318.255 531.205C318.211 531.92 318.167 532.588 318.156 533.153C318.145 533.718 318.156 534.168 318.156 534.491C318.156 534.814 318.156 534.975 318.156 534.987H317.947L317.617 534.191C317.397 533.684 317.089 533.038 316.682 532.173C316.275 531.308 315.802 530.421 315.241 529.417L300.655 504.051L295.364 505.469C295.364 505.469 295.529 505.711 295.859 506.172C296.189 506.633 296.629 507.325 297.19 508.178C297.751 509.032 298.389 510.116 299.115 511.372L316.242 540.856L320.807 539.587L325.328 509.251C325.515 507.959 325.68 506.737 325.823 505.596C325.966 504.454 326.043 503.29 326.098 502.263C326.153 501.237 326.098 500.084 326.098 498.977L321.577 499.9C321.577 500.787 321.577 501.687 321.577 502.586C321.577 503.486 321.511 504.443 321.423 505.423C321.335 506.403 321.225 507.487 321.071 508.64L318.508 528.841L318.475 528.899ZM349.406 531.919L370.13 523.145L368.81 518.867L367.864 519.432C367.226 519.79 366.291 520.251 365.048 520.827L352.827 526.177L347.943 513.494L361.561 508.201L360.098 503.67L346.491 509.793L341.707 497.386L352.915 492.774C353.52 492.543 354.103 492.313 354.675 492.105L356.248 491.563L357.348 491.194L357.777 491.067L356.457 486.893L335.195 495.899L335.415 496.337L335.965 497.49C336.196 497.974 336.449 498.528 336.713 499.127C336.977 499.727 337.252 500.372 337.505 501.041L349.384 531.873L349.406 531.919ZM386.806 514.543L391.535 511.684L391.283 511.326L390.645 510.346C390.381 509.943 390.095 509.481 389.786 508.963C389.479 508.444 389.16 507.913 388.852 507.348L383.891 498.447L389.853 494.838L404.691 504.004L409.74 500.626L409.08 500.338C408.662 500.142 408.112 499.888 407.441 499.554C406.77 499.219 406.066 498.839 405.34 498.401L393.13 491.113C394.111 490.05 394.884 488.797 395.407 487.424C395.92 486.034 396.12 484.538 395.99 483.054C395.831 481.353 395.312 479.711 394.472 478.246C393.495 476.387 392.024 474.865 390.238 473.864C388.392 472.906 386.316 472.549 384.276 472.838C381.668 473.223 379.163 474.165 376.917 475.605L367.93 481.047L368.205 481.439L368.909 482.489C369.206 482.927 369.525 483.446 369.866 483.999C370.207 484.553 370.57 485.152 370.9 485.775L386.74 514.532L386.806 514.543ZM378.248 479.456C379.813 478.437 381.562 477.766 383.385 477.485C384.733 477.286 386.106 477.549 387.301 478.234C388.441 478.998 389.389 480.04 390.063 481.27C390.737 482.501 391.118 483.884 391.172 485.302C391.173 486.653 390.79 487.974 390.073 489.096C389.224 490.405 388.094 491.488 386.773 492.255L382.098 495.091L374.684 481.624L378.259 479.456H378.248ZM409.047 456.476C409.707 455.872 410.397 455.307 411.115 454.781C411.775 454.297 412.424 453.859 413.051 453.455L414.932 452.233C415.559 451.818 416.197 451.345 416.857 450.838L414.657 446.975C413.931 447.517 413.26 447.99 412.611 448.428L410.719 449.685C410.092 450.088 409.465 450.527 408.827 451.011C408.189 451.495 407.496 452.06 406.781 452.706C405.014 454.246 403.581 456.165 402.579 458.333C401.753 460.123 401.429 462.122 401.644 464.098C401.9 466.059 402.713 467.895 403.976 469.367C404.842 470.44 405.899 471.326 407.089 471.973C408.151 472.523 409.306 472.848 410.488 472.93C411.699 473.001 412.914 472.892 414.096 472.607C415.377 472.301 416.631 471.884 417.847 471.362C419.101 470.832 420.282 470.382 421.389 470.013C422.396 469.665 423.436 469.433 424.491 469.321C425.392 469.223 426.303 469.325 427.164 469.621C428.021 469.967 428.779 470.539 429.364 471.281C430.175 472.205 430.64 473.405 430.673 474.66C430.648 475.974 430.266 477.254 429.573 478.349C428.709 479.774 427.641 481.049 426.405 482.131C425.513 482.952 424.581 483.721 423.611 484.437C422.72 485.095 421.906 485.59 421.191 486.063C420.476 486.536 419.904 486.813 419.497 487.032L418.859 487.343L421.532 490.572L422.104 490.341C422.478 490.18 423.006 489.914 423.688 489.534C424.519 489.054 425.327 488.531 426.108 487.966C427.167 487.187 428.188 486.352 429.166 485.464C431.176 483.712 432.855 481.58 434.116 479.18C435.105 477.294 435.538 475.143 435.359 472.999C435.116 470.892 434.25 468.916 432.884 467.349C431.987 466.209 430.86 465.291 429.584 464.663C428.451 464.143 427.222 463.895 425.987 463.936C424.664 463.987 423.352 464.212 422.082 464.605C420.718 465.009 419.31 465.505 417.836 466.093C416.454 466.655 415.025 467.084 413.568 467.372C412.431 467.613 411.258 467.577 410.136 467.269C409.049 466.926 408.084 466.251 407.364 465.332C406.7 464.569 406.274 463.611 406.143 462.587C406.033 461.547 406.221 460.495 406.682 459.566C407.262 458.392 408.063 457.352 409.036 456.511L409.047 456.476ZM452.716 461.584L456.434 457.399L456.093 457.133L455.202 456.396C454.839 456.084 454.432 455.738 453.992 455.335C453.552 454.931 453.101 454.528 452.65 454.078L428.99 430.856L425.426 435.272L425.8 435.572L426.779 436.379C427.189 436.717 427.64 437.101 428.132 437.532C428.627 437.97 429.133 438.431 429.628 438.915L452.793 461.561L452.716 461.584ZM473.814 434.084L476.938 429.403L476.564 429.184L475.585 428.584C475.178 428.331 474.738 428.042 474.243 427.719C473.748 427.397 473.253 427.051 472.747 426.67L449.493 409.605L453.893 403.413C454.322 402.814 454.74 402.26 455.147 401.73C455.554 401.2 455.895 400.784 456.159 400.462C456.423 400.139 456.566 399.966 456.577 399.966L453.189 397.175L436.69 421.827L440.067 424.514L440.319 424.018C440.495 423.695 440.749 423.257 441.068 422.692C441.387 422.127 441.782 421.539 442.255 420.755L446.49 414.033L473.781 434.061L473.814 434.084ZM494.713 397.521L496.913 392.298L496.506 392.16L495.406 391.768L493.932 391.18C493.393 390.961 492.832 390.718 492.271 390.453L483.329 386.268L473.902 372.57C472.802 370.886 471.79 369.468 470.899 368.338C470.008 367.208 469.304 366.355 468.787 365.79C468.27 365.225 467.995 364.937 467.984 364.937L465.894 369.86C465.894 369.86 466.334 370.287 467.159 371.163C467.984 372.039 469.095 373.4 470.514 375.233L479.083 386.464L457.776 388.309L455.576 394.074L456.071 393.982L457.369 393.762L459.195 393.486L461.274 393.209L481.25 391.226L494.702 397.498L494.713 397.521Z" fill="#1800FF"/>
<path fill-rule="evenodd" clip-rule="evenodd" d="M44.5933 335.834C45.5048 335.834 46.3959 336.117 47.1539 336.648C47.9118 337.179 48.5025 337.934 48.8514 338.816C49.2002 339.699 49.2915 340.671 49.1136 341.608C48.9358 342.545 48.4968 343.406 47.8523 344.081C47.2077 344.757 46.3865 345.217 45.4924 345.404C44.5984 345.59 43.6717 345.494 42.8295 345.129C41.9874 344.763 41.2675 344.144 40.7611 343.349C40.2547 342.555 39.9844 341.621 39.9844 340.665C39.9844 339.384 40.47 338.155 41.3343 337.249C42.1986 336.343 43.3709 335.834 44.5933 335.834Z" fill="#1800FF"/>
<path fill-rule="evenodd" clip-rule="evenodd" d="M494.406 335.834C495.317 335.834 496.208 336.117 496.966 336.648C497.724 337.179 498.315 337.934 498.664 338.816C499.013 339.699 499.104 340.671 498.926 341.608C498.748 342.545 498.309 343.406 497.665 344.081C497.02 344.757 496.199 345.217 495.305 345.404C494.411 345.59 493.484 345.494 492.642 345.129C491.8 344.763 491.08 344.144 490.574 343.349C490.067 342.555 489.797 341.621 489.797 340.665C489.797 339.384 490.282 338.155 491.147 337.249C492.011 336.343 493.183 335.834 494.406 335.834Z" fill="#1800FF"/>
<path d="M273.002 132.323V135.898H290.855V132.323H285.124V97.709H284.299L271.66 100.741L271.913 103.601L280.064 102.84V132.323H273.002Z" fill="#1800FF"/>
<path d="M317.387 101.006L316.881 96.8555C312.903 97.2469 309.047 98.5077 305.563 100.557C302.524 102.423 300.082 105.191 298.545 108.513C296.833 112.449 296.009 116.745 296.136 121.069C296.122 123.126 296.396 125.173 296.95 127.146C297.444 128.905 298.242 130.554 299.304 132.012C300.306 133.373 301.588 134.481 303.055 135.252C304.612 136.035 306.321 136.429 308.048 136.405C309.837 136.437 311.614 136.092 313.273 135.39C314.703 134.773 315.984 133.832 317.024 132.634C318.01 131.463 318.759 130.094 319.224 128.61C319.738 127.049 319.994 125.407 319.983 123.756C320.003 122.14 319.742 120.535 319.213 119.017C318.735 117.726 318.013 116.549 317.09 115.558C316.2 114.61 315.133 113.864 313.955 113.367C312.737 112.863 311.437 112.609 310.127 112.617C308.857 112.61 307.591 112.784 306.366 113.136C305.247 113.463 304.186 113.973 303.22 114.647C302.317 115.281 301.543 116.096 300.943 117.045C301.121 114.989 301.603 112.974 302.373 111.072C303.022 109.483 303.93 108.023 305.057 106.76C306.118 105.571 307.35 104.563 308.708 103.774C310.044 103.015 311.452 102.409 312.91 101.963C314.379 101.523 315.875 101.191 317.387 100.972V101.006ZM301.856 124.759C301.849 123.723 301.994 122.693 302.285 121.703C302.553 120.785 302.99 119.931 303.572 119.19C304.171 118.452 304.923 117.868 305.772 117.483C306.731 117.056 307.765 116.844 308.807 116.861C309.995 116.834 311.165 117.17 312.173 117.829C313.114 118.469 313.856 119.383 314.307 120.458C314.827 121.692 315.082 123.03 315.055 124.378C315.092 125.824 314.852 127.263 314.351 128.61C313.92 129.768 313.149 130.752 312.151 131.424C311.001 132.136 309.681 132.488 308.346 132.438C307.382 132.454 306.43 132.22 305.574 131.758C304.784 131.327 304.093 130.721 303.55 129.982C302.997 129.245 302.576 128.409 302.307 127.515C302.029 126.629 301.888 125.703 301.889 124.771L301.856 124.759Z" fill="#1800FF"/>
<path d="M220.315 132.323V135.898H238.167V132.323H232.436V97.709H231.611L218.973 100.741L219.237 103.601L227.387 102.84V132.323H220.315Z" fill="#1800FF"/>
<path d="M245.557 132.704L246.074 136.82C250.053 136.429 253.908 135.168 257.393 133.119C260.432 131.254 262.875 128.485 264.411 125.163C266.119 121.233 266.943 116.945 266.82 112.629C266.837 110.573 266.563 108.525 266.006 106.553C265.512 104.794 264.714 103.144 263.652 101.687C262.649 100.326 261.367 99.2182 259.901 98.4469C258.344 97.6631 256.634 97.2685 254.907 97.2939C253.118 97.2633 251.342 97.6083 249.682 98.3085C248.258 98.9235 246.981 99.8606 245.942 101.053C244.957 102.229 244.208 103.601 243.742 105.088C243.228 106.649 242.971 108.291 242.983 109.943C242.964 111.559 243.229 113.166 243.764 114.682C244.23 115.994 244.949 117.191 245.876 118.198C246.766 119.145 247.834 119.887 249.011 120.378C250.228 120.89 251.528 121.148 252.839 121.139C254.11 121.145 255.375 120.971 256.601 120.62C257.717 120.297 258.776 119.787 259.736 119.109C260.615 118.472 261.363 117.657 261.936 116.711C261.769 118.771 261.293 120.79 260.528 122.695C259.888 124.285 258.987 125.744 257.866 127.008C256.814 128.169 255.597 129.153 254.258 129.925C252.926 130.69 251.517 131.298 250.056 131.735C248.589 132.173 247.092 132.497 245.579 132.704H245.557ZM261.089 109.066C261.1 110.083 260.955 111.095 260.66 112.064C260.393 112.97 259.959 113.812 259.384 114.543C258.785 115.279 258.032 115.859 257.184 116.238C256.22 116.664 255.183 116.876 254.137 116.861C252.963 116.904 251.805 116.566 250.82 115.893C249.836 115.22 249.074 114.246 248.637 113.102C248.114 111.792 247.859 110.382 247.889 108.963C247.863 107.598 248.122 106.244 248.648 104.996C249.113 103.887 249.878 102.945 250.848 102.287C251.973 101.592 253.262 101.244 254.566 101.283C255.536 101.268 256.496 101.502 257.36 101.964C258.182 102.392 258.901 103.011 259.461 103.774C260.005 104.52 260.422 105.358 260.693 106.253C260.969 107.163 261.11 108.112 261.111 109.066H261.089Z" fill="#1800FF"/>
<path d="M141.357 145.502H400.104V333.793C399.788 369.885 385.889 404.386 361.43 429.791C336.971 455.196 303.931 469.448 269.498 469.448C235.066 469.448 202.026 455.196 177.567 429.791C153.108 404.386 139.209 369.885 138.893 333.793V145.502H141.357ZM269.493 150.679H143.831V333.793C144.141 368.516 157.518 401.707 181.051 426.146C204.585 450.585 236.372 464.295 269.498 464.295C302.625 464.295 334.412 450.585 357.946 426.146C381.479 401.707 394.855 368.516 395.165 333.793V150.679H269.493Z" fill="#1800FF"/>
<path d="M324.219 354.375H324.274L325.902 354.824V433.877L323.284 433.323C304.683 429.357 286.555 432.401 269.495 440.241C252.456 432.424 234.295 429.403 215.706 433.323L213.088 433.877V354.847L214.716 354.398H214.782C217.409 353.691 220.076 353.164 222.768 352.818C225.634 352.446 228.515 352.227 231.403 352.161C245.768 351.803 261.311 354.882 269.495 360.463C277.679 354.894 293.221 351.803 307.587 352.161C310.474 352.227 313.356 352.446 316.222 352.818C318.913 353.163 321.581 353.691 324.208 354.398L324.219 354.375ZM223.604 371.67C226.145 371.359 228.774 371.174 231.425 371.105C242.05 370.84 253.303 372.454 261.685 375.579V378.784C253.644 375.556 242.27 373.861 231.491 374.172C228.796 374.242 226.145 374.426 223.593 374.749V371.705L223.604 371.67ZM223.604 384.354C226.145 384.042 228.774 383.858 231.425 383.789C242.05 383.523 253.303 385.138 261.685 388.274V391.479C253.644 388.251 242.27 386.556 231.491 386.867C228.796 386.936 226.145 387.121 223.593 387.444V384.4L223.604 384.354ZM223.604 397.037C226.145 396.726 228.774 396.541 231.425 396.472C242.05 396.207 253.303 397.821 261.685 400.946V404.151C253.644 400.923 242.27 399.228 231.491 399.539C228.796 399.608 226.145 399.793 223.593 400.116V397.072L223.604 397.037ZM223.604 409.72C226.145 409.409 228.774 409.225 231.425 409.156C242.05 408.89 253.303 410.505 261.685 413.641V416.846C253.644 413.618 242.27 411.923 231.491 412.234C228.796 412.303 226.145 412.488 223.593 412.811V409.767L223.604 409.72ZM267.295 434.28V364.36C259.969 359.183 245.24 356.289 231.48 356.658C228.743 356.721 226.012 356.929 223.296 357.28C221.261 357.545 219.303 357.903 217.433 358.341V428.319C234.258 425.385 251.532 427.45 267.295 434.28ZM315.397 374.737C312.856 374.414 310.194 374.218 307.51 374.149C296.73 373.873 285.356 375.567 277.316 378.761V375.556C285.697 372.431 296.95 370.805 307.576 371.082C310.227 371.151 312.867 371.336 315.397 371.647V374.737ZM315.397 387.421C312.856 387.098 310.194 386.902 307.51 386.833C296.73 386.567 285.356 388.251 277.316 391.445V388.239C285.697 385.115 296.95 383.489 307.576 383.754C310.227 383.823 312.867 384.008 315.397 384.319V387.421ZM315.397 400.104C312.856 399.781 310.194 399.585 307.51 399.516C296.73 399.251 285.356 400.934 277.316 404.128V400.923C285.697 397.798 296.95 396.172 307.576 396.449C310.227 396.518 312.856 396.703 315.397 397.014V400.104ZM315.397 412.788C312.856 412.465 310.194 412.269 307.51 412.2C296.73 411.934 285.356 413.618 277.316 416.812V413.606C285.697 410.481 296.95 408.856 307.576 409.121C310.227 409.19 312.867 409.375 315.397 409.686V412.741V412.788ZM321.535 358.318C319.676 357.88 317.707 357.522 315.672 357.257C312.956 356.906 310.224 356.698 307.488 356.635C293.727 356.289 278.999 359.16 271.673 364.337V434.223C287.439 427.404 304.712 425.351 321.535 428.296V358.376V358.318Z" fill="#1800FF"/>
<path d="M141.312 331.476H397.673V336.088H141.312V331.476Z" fill="#1800FF"/>
<path d="M346.426 255.294L367.215 297.772L367.457 298.256V329.608H365.257C364.267 329.608 363.277 329.608 361.682 329.608C349.638 329.354 338.814 326.771 338.528 300.055L324.162 289.816L323.722 290.139C320.979 292.116 318.026 293.753 314.922 295.016C312.262 296.089 309.494 296.844 306.672 297.265L303.548 313.765H304.142C309.455 314.076 312.403 316.509 314.042 320.291C315.681 324.073 315.813 328.662 315.813 333.851V336.157H274.63V328.616V326.31V314.076H266.138V311.77V311.551V311.32V310.905V310.467V310.017V309.614V309.291V309.095V308.991V308.887C266.138 308.68 266.204 308.472 266.248 308.265V308.161V308.057V307.953V307.873V307.769V307.665V307.458V307.354V307.285L266.358 306.881L266.479 306.478C266.611 306.051 266.754 305.647 266.908 305.232C267.169 304.564 267.471 303.913 267.81 303.284C268.683 301.656 269.796 300.185 271.11 298.925C271.592 298.472 272.099 298.049 272.628 297.657H249.265C247.062 299.797 244.495 301.482 241.697 302.626C241.092 302.869 240.52 303.065 239.97 303.215V313.626H240.102C246.163 313.626 249.43 316.14 251.212 320.199C252.796 323.889 252.993 328.616 252.993 333.805V336.111H180.076V314.088H171.595V311.782C171.592 309.363 172.071 306.97 173.001 304.756C173.931 302.542 175.292 300.556 176.996 298.925C177.548 298.398 178.132 297.909 178.745 297.461H171.595V295.155C171.607 292.271 172.295 289.434 173.6 286.894C174.904 284.354 176.784 282.19 179.075 280.592C179.416 280.361 179.768 280.131 180.175 279.923V270.122H175.995L175.412 268.773C172.818 262.515 171.517 255.752 171.595 248.93C171.61 239.218 174.044 229.679 178.657 221.257C183.477 212.368 190.848 205.299 199.722 201.055C206.373 197.95 213.582 196.377 220.863 196.443H280.042C282.319 192.978 285.196 189.99 288.523 187.634C289.183 187.173 289.92 186.7 290.723 186.216C292.265 185.308 293.876 184.537 295.541 183.91C294.788 182.4 294.353 180.74 294.264 179.039C294.175 177.339 294.434 175.638 295.024 174.051C295.757 172.226 296.99 170.67 298.566 169.577C300.147 168.492 301.988 167.896 303.878 167.859C307.64 167.779 311.787 169.808 314.812 174.847H342.092C345.117 169.808 349.264 167.767 353.025 167.859C354.915 167.896 356.757 168.492 358.338 169.577C359.926 170.684 361.164 172.261 361.891 174.109C363.288 177.568 362.991 182.18 359.691 186.954C373.287 213.958 364.619 228.59 348.263 242.68V243.061C348.086 247.19 347.485 251.288 346.47 255.283L346.426 255.294ZM245.074 323.324V331.579H248.594C248.539 327.843 248.264 324.546 247.241 322.205C246.218 319.864 244.106 318.319 240.102 318.319H235.592V299.306L237.451 298.994C237.899 298.918 238.343 298.818 238.782 298.695C239.266 298.556 239.717 298.406 240.124 298.245C240.63 298.049 241.125 297.818 241.62 297.565H225.34C223.135 299.707 220.564 301.393 217.761 302.534C217.167 302.765 216.573 302.972 216.001 303.134L215.429 303.284L211.458 313.961C213.204 314.182 214.863 314.882 216.269 315.989C217.675 317.096 218.777 318.572 219.466 320.268C220.83 323.37 221.16 327.255 221.226 331.533H237.154V323.277H239.354V331.533H242.874V323.277L245.074 323.324ZM212.921 323.324V331.579H216.87C216.815 327.843 216.54 324.546 215.517 322.205C214.494 319.864 212.382 318.319 208.378 318.319H205.188L206.343 315.206L211.843 300.493L212.305 299.248L213.207 299.098C218.127 297.662 222.464 294.58 225.558 290.321C228.652 286.062 230.333 280.86 230.345 275.507C230.362 270.75 229.059 266.091 226.594 262.097C226.121 261.329 225.607 260.59 225.054 259.883C224.625 259.341 224.163 258.788 223.679 258.269H229.377C229.685 258.707 229.982 259.157 230.257 259.618C233.171 264.329 234.722 269.823 234.723 275.438C234.724 281.761 232.754 287.911 229.113 292.952H266.314C266.488 291.413 266.858 289.904 267.414 288.467C267.677 287.799 267.978 287.148 268.316 286.519C269.819 283.752 272.014 281.468 274.663 279.912L274.498 258.281H278.898L279.041 281.341V282.829L277.754 283.44C275.378 284.561 273.403 286.442 272.111 288.813C271.42 290.074 270.944 291.451 270.703 292.883H279.041V299.444L277.853 300.009H277.754H277.688L277.391 300.159H277.193L277.061 300.228L276.951 300.286L276.841 300.343L276.731 300.401H276.632H276.555H276.478H276.401H276.324H276.247H276.17L275.983 300.539H275.917L275.609 300.793L275.444 300.931L275.312 301.058L275.103 301.254L274.674 301.693L274.531 301.842L274.41 301.981L274.344 302.061L274.234 302.2L274.168 302.292L274.102 302.384L273.948 302.58L273.662 302.984C273.401 303.355 273.159 303.74 272.936 304.137C272.815 304.368 272.694 304.598 272.584 304.829V304.886V304.979L272.518 305.14V306.708V306.8V306.927V307.008V307.123V307.193V307.308L272.364 307.792V307.953V308.034V308.161V308.276V308.403V308.484V308.553L272.265 308.968V309.222H280.603V328.259V331.233H295.882V322.989H298.082V331.233H301.602V322.989H303.801V331.233H307.321V322.989H309.521V331.233H313.041C312.986 327.497 312.711 324.2 311.688 321.859C310.665 319.518 306.892 318.239 302.922 318.239H298.203L299.204 313.004L300.37 306.87L302.163 297.53L302.69 294.705L303.009 293.033L303.878 288.49L304.098 287.337L305.132 286.853C307.016 285.983 308.78 284.855 310.379 283.498C310.676 283.244 310.984 282.967 311.303 282.667C311.622 282.368 311.941 282.056 312.205 281.78C315.302 278.531 317.467 274.436 318.453 269.961C318.647 269.075 318.794 268.178 318.893 267.274C318.997 266.367 319.052 265.455 319.058 264.542V264.046V258.281H323.458V264.046V264.553C323.456 265.64 323.397 266.725 323.282 267.805C322.559 274.32 319.761 280.389 315.34 285.031C314.966 285.423 314.614 285.769 314.24 286.08C313.866 286.392 313.525 286.738 313.14 287.06C311.537 288.412 309.796 289.572 307.948 290.52L307.585 292.411C309.563 292.011 311.503 291.428 313.382 290.669C316.175 289.539 318.833 288.073 321.302 286.299C333.402 277.698 341.916 262.086 343.621 246.508C340.321 249.137 336.812 251.789 333.171 254.579L329.684 257.128L328.408 258.085L327.132 257.128L323.689 254.533C299.138 236.085 280.372 221.879 296.432 188.476C295.186 188.976 293.977 189.569 292.813 190.251C292.219 190.597 291.592 191.012 290.921 191.485C287.757 193.725 285.068 196.626 283.023 200.006L282.385 201.067H220.786C214.128 200.984 207.53 202.4 201.438 205.218C193.396 209.069 186.718 215.48 182.353 223.54C178.131 231.262 175.905 240.006 175.896 248.906C175.859 254.597 176.867 260.242 178.866 265.533H180.274V258.281H184.674V268.773H184.465V282.84L183.189 283.451C182.597 283.73 182.027 284.058 181.484 284.432C180.941 284.804 180.426 285.221 179.944 285.677C177.964 287.575 176.634 290.103 176.16 292.872H184.487V299.433L183.211 300.044C182.025 300.608 180.93 301.363 179.966 302.281C177.987 304.179 176.657 306.707 176.182 309.476H184.52V331.487H199.37V323.231H201.57V331.487H205.089V323.231H207.289V331.487H210.809V323.231L212.921 323.324ZM359.57 316.832V324.972C360.296 324.972 361.044 325.053 361.77 325.065H363.079V299.352L344.534 261.463C341.067 271.255 335.311 279.977 327.792 286.83L341.927 296.896L342.884 297.576V298.729C342.884 313.811 346.481 320.21 351.684 322.943V316.705H353.883V323.865C355.033 324.231 356.211 324.489 357.403 324.638V316.705L359.57 316.832ZM312.029 204.468H324.129L323.832 206.682C323.535 208.931 323.205 210.845 322.897 212.678C321.797 219.412 320.829 224.946 323.425 231.438H333.325C335.921 224.958 334.986 219.412 333.853 212.678C333.545 210.845 333.215 208.931 332.918 206.682L332.621 204.468H344.721L336.878 208.366C337.065 209.588 337.274 210.822 337.472 212.009C338.781 219.792 339.848 226.122 336.174 234.217L335.668 235.37H321.071L320.565 234.217C316.88 226.145 317.947 219.792 319.267 212.009C319.465 210.856 319.674 209.588 319.872 208.366L312.029 204.48V204.468ZM328.397 229.351L332.423 226.238L330.883 223.77H325.9L324.36 226.238L328.386 229.351H328.397ZM326.197 250.913L328.397 252.55L330.597 250.913C354.048 233.237 371.835 219.781 355.148 187.922L354.444 186.562L355.379 185.409C358.316 181.661 358.767 178.329 357.832 176C357.43 175.006 356.757 174.16 355.896 173.567C355.01 172.956 353.976 172.62 352.915 172.598C350.353 172.541 347.416 174.224 345.216 178.364L344.6 179.517H312.216L311.6 178.364C309.4 174.178 306.485 172.495 303.9 172.598C302.84 172.62 301.806 172.956 300.92 173.567C300.06 174.16 299.386 175.007 298.984 176C298.049 178.306 298.5 181.661 301.437 185.409L302.372 186.562L301.668 187.922C284.992 219.827 302.768 233.237 326.219 250.913H326.197Z" fill="#1800FF"/>
<path fill-rule="evenodd" clip-rule="evenodd" d="M324.153 204.399C323.639 205.634 322.793 206.684 321.719 207.422C320.644 208.16 319.387 208.553 318.103 208.553C316.818 208.553 315.561 208.16 314.487 207.422C313.412 206.684 312.566 205.634 312.053 204.399H324.153Z" fill="#1800FF"/>
<path fill-rule="evenodd" clip-rule="evenodd" d="M344.799 204.399C344.286 205.634 343.44 206.684 342.365 207.422C341.29 208.16 340.034 208.553 338.749 208.553C337.464 208.553 336.208 208.16 335.133 207.422C334.058 206.684 333.213 205.634 332.699 204.399H344.799Z" fill="#1800FF"/>
</g>
<defs>
<clipPath id="clip0_2_11355">
<rect width="539" height="565" fill="white"/>
</clipPath>
</defs>
</svg>
